<!DOCTYPE svg PUBLIC "-//W3C//DTD SVG 20010904//EN" "http://www.w3.org/TR/2001/REC-SVG-20010904/DTD/svg10.dtd">
<svg version="1.0" xmlns="http://www.w3.org/2000/svg" width="1000px" height="1000px" viewBox="0 0 10000 10000" preserveAspectRatio="xMidYMid meet">
<g id="layer101" fill="#000000" stroke="none">
 <path d="M0 5000 l0 -5000 5000 0 5000 0 0 5000 0 5000 -5000 0 -5000 0 0 -5000z"/>
 </g>
<g id="layer102" fill="#603813" stroke="none">
 <path d="M0 5000 l0 -5000 5000 0 5000 0 0 5000 0 5000 -5000 0 -5000 0 0 -5000z m2217 2979 c40 -15 73 -48 94 -94 15 -33 19 -66 19 -194 0 -137 -2 -160 -21 -199 -66 -135 -268 -134 -330 2 -16 34 -19 67 -19 198 0 87 5 169 11 185 34 91 150 139 246 102z m1750 -14 c74 -44 83 -75 83 -275 0 -182 -5 -204 -52 -246 -76 -70 -181 -73 -251 -6 -53 50 -61 76 -65 225 -5 148 5 211 39 259 50 69 166 89 246 43z m-1717 -2266 c25 -11 56 -30 68 -42 57 -53 85 -159 60 -232 -11 -34 -18 -40 -48 -45 -65 -11 -78 -24 -104 -104 -5 -16 -15 -18 -80 -14 -59 3 -81 8 -114 31 -151 99 -139 328 21 403 65 30 135 31 197 3z m1718 5 c126 -52 179 -202 114 -325 -37 -70 -100 -111 -180 -117 l-57 -4 -1 33 c-2 46 -54 93 -98 86 -17 -2 -38 -7 -47 -11 -22 -10 -49 58 -49 125 0 127 101 228 228 229 29 0 69 -7 90 -16z"/>
 </g>
<g id="layer103" fill="#0b9444" stroke="none">
 <path d="M0 6595 l0 -3405 615 0 615 0 74 25 c98 33 173 33 244 0 l54 -25 700 0 700 0 41 36 c52 44 165 98 235 113 82 17 209 13 295 -9 69 -17 80 -18 112 -4 102 42 277 38 378 -11 l50 -23 51 28 c76 42 149 60 246 60 107 0 184 -20 278 -70 62 -34 77 -38 95 -29 80 43 259 52 360 18 34 -11 77 -30 95 -41 l33 -20 57 22 c41 16 87 24 159 28 118 5 171 -8 266 -65 l59 -36 89 28 c204 62 354 64 475 5 61 -30 63 -30 236 -30 172 0 174 0 209 26 89 68 211 99 356 92 109 -6 175 -27 263 -82 l54 -34 44 39 c24 21 69 49 101 61 52 21 70 23 261 23 240 0 283 -9 380 -81 l62 -45 86 3 c60 3 106 12 147 28 86 33 225 33 310 -1 60 -23 60 -23 588 -26 l527 -3 0 3405 0 3405 -5000 0 -5000 0 0 -3405z m5249 3085 c128 -12 229 -31 322 -61 432 -141 696 -488 749 -984 20 -179 24 -917 9 -1510 -8 -308 -14 -777 -13 -1042 l1 -483 -415 0 -415 0 7 1003 c4 551 11 1108 14 1237 8 261 -1 619 -18 723 -30 187 -136 320 -294 369 -56 17 -85 20 -160 15 -207 -12 -326 -99 -456 -332 -28 -52 -55 -95 -59 -95 -14 0 -224 122 -448 259 l-232 143 43 86 c239 474 752 726 1365 672z m3241 -1 c378 -34 664 -157 880 -378 140 -143 230 -309 276 -508 25 -109 30 -390 10 -512 -41 -246 -139 -426 -329 -608 -169 -161 -388 -288 -807 -468 -400 -171 -520 -241 -602 -349 -75 -100 -90 -266 -34 -380 35 -71 119 -148 194 -177 83 -33 249 -34 344 -1 131 46 257 149 317 262 18 33 34 60 37 60 2 0 93 -54 202 -120 188 -115 327 -209 407 -275 l36 -30 -59 -90 c-248 -380 -613 -564 -1119 -565 -318 0 -587 81 -805 245 -302 227 -447 580 -408 988 19 200 64 338 162 498 72 118 248 292 393 388 135 90 404 224 630 315 288 116 419 190 511 288 77 81 114 175 114 290 0 217 -216 375 -540 395 -179 11 -342 -34 -500 -139 -103 -68 -232 -190 -304 -288 -26 -36 -50 -67 -52 -69 -2 -2 -21 7 -41 21 -21 14 -110 65 -198 113 -259 143 -415 245 -415 271 0 6 24 50 54 97 331 527 932 792 1646 726z m-5225 -1199 c560 -47 986 -207 1278 -480 394 -369 521 -921 407 -1762 -43 -311 -145 -734 -235 -973 -2 -5 26 -24 63 -42 245 -117 453 -334 541 -563 51 -130 66 -227 65 -400 -2 -159 -14 -246 -53 -377 -31 -102 -24 -97 -156 -101 -189 -7 -376 34 -540 116 -165 82 -297 194 -360 305 -19 34 -39 68 -43 75 -7 11 -25 9 -93 -12 -258 -78 -586 -120 -1017 -132 -495 -13 -992 36 -1312 130 l-85 25 -19 -22 c-10 -12 -29 -44 -43 -72 -31 -60 -125 -156 -212 -214 -96 -66 -258 -139 -368 -167 -105 -27 -311 -43 -395 -30 l-46 7 -26 82 c-41 130 -57 248 -57 402 0 214 43 375 143 542 87 147 258 300 433 390 50 25 91 47 92 48 2 1 -13 48 -32 106 -79 233 -159 576 -199 860 -152 1061 93 1700 781 2035 247 121 594 205 938 227 119 8 440 6 550 -3z"/>
 <path d="M2775 8360 c-575 -32 -1025 -195 -1309 -474 -202 -199 -316 -439 -368 -776 -20 -132 -17 -581 6 -755 42 -326 114 -653 207 -939 27 -83 49 -160 49 -172 0 -44 -43 -87 -136 -135 -132 -67 -209 -122 -295 -210 -201 -205 -282 -483 -234 -803 20 -135 32 -174 57 -187 15 -8 51 -8 137 1 123 13 272 55 372 106 139 70 260 177 308 272 35 70 100 132 137 132 15 0 70 -13 124 -30 307 -95 710 -136 1249 -127 452 7 749 43 1016 123 128 39 153 40 194 12 18 -13 51 -52 71 -88 126 -218 381 -366 690 -400 154 -17 154 -17 182 93 19 79 22 117 22 267 0 161 -3 182 -27 263 -80 262 -259 462 -523 583 -129 60 -139 100 -74 294 161 481 256 1106 230 1516 -28 433 -138 713 -375 950 -139 139 -295 239 -508 323 -311 124 -767 185 -1202 161z m-558 -381 c40 -15 73 -48 94 -94 15 -33 19 -66 19 -194 0 -137 -2 -160 -21 -199 -66 -135 -268 -134 -330 2 -16 34 -19 67 -19 198 0 87 5 169 11 185 34 91 150 139 246 102z m1750 -14 c74 -44 83 -75 83 -275 0 -182 -5 -204 -52 -246 -76 -70 -181 -73 -251 -6 -53 50 -61 76 -65 225 -5 148 5 211 39 259 50 69 166 89 246 43z m-1717 -2266 c25 -11 56 -30 68 -42 57 -53 85 -159 60 -232 -11 -34 -18 -40 -48 -45 -65 -11 -78 -24 -104 -104 -5 -16 -15 -18 -80 -14 -59 3 -81 8 -114 31 -151 99 -139 328 21 403 65 30 135 31 197 3z m1718 5 c126 -52 179 -202 114 -325 -37 -70 -100 -111 -180 -117 l-57 -4 -1 33 c-2 46 -54 93 -98 86 -17 -2 -38 -7 -47 -11 -22 -10 -49 58 -49 125 0 127 101 228 228 229 29 0 69 -7 90 -16z m-2628 -632 c21 -17 23 -28 25 -140 3 -113 5 -127 34 -186 40 -83 39 -115 -5 -194 -122 -223 -303 -352 -515 -369 l-77 -6 -7 86 c-18 211 44 425 169 583 73 93 181 180 279 224 53 24 69 25 97 2z m3395 -21 c249 -139 395 -372 412 -657 3 -55 3 -126 -1 -157 l-7 -57 -48 0 c-57 0 -185 31 -238 58 -73 38 -163 114 -220 186 -57 73 -123 195 -123 230 0 10 11 43 25 71 33 70 47 137 45 215 -3 99 -2 108 20 130 29 29 56 25 135 -19z"/>
 <path d="M4323 3201 c-60 -16 -124 -62 -156 -112 l-30 -49 -47 44 c-81 76 -120 91 -235 91 -95 0 -103 -2 -153 -33 l-53 -32 -49 25 c-152 77 -367 43 -473 -74 -40 -44 -91 -146 -106 -211 -20 -88 -13 -399 14 -600 29 -216 40 -281 61 -370 8 -36 21 -92 29 -125 8 -33 28 -116 44 -185 58 -240 73 -311 69 -315 -6 -6 -109 161 -196 316 -113 203 -222 426 -428 878 -201 442 -230 491 -283 491 -45 0 -149 -56 -171 -92 -22 -36 -26 -102 -10 -178 12 -55 26 -130 45 -235 8 -44 23 -132 34 -195 69 -389 100 -636 108 -845 7 -223 11 -221 -95 -57 -264 407 -443 812 -652 1482 -50 161 -57 177 -89 213 -33 36 -101 38 -170 2 -110 -55 -125 -115 -72 -297 27 -94 61 -236 80 -343 23 -124 50 -261 81 -425 72 -368 93 -556 94 -825 0 -213 -8 -294 -34 -310 -30 -19 -137 91 -232 240 -174 273 -402 746 -424 882 -3 23 -19 55 -38 78 -29 35 -35 37 -68 31 -45 -8 -112 -56 -139 -99 -30 -47 -20 -117 40 -276 108 -287 306 -654 470 -876 64 -86 211 -229 261 -255 64 -33 152 -25 251 23 136 66 182 124 210 267 17 86 15 448 -3 603 -8 64 -10 117 -6 117 4 0 30 -44 57 -99 106 -211 248 -437 330 -524 25 -27 65 -60 89 -74 50 -29 87 -28 196 7 70 23 106 53 140 115 20 38 21 52 20 295 -1 192 -6 288 -21 388 -10 72 -16 132 -13 132 4 0 64 -109 135 -242 226 -427 332 -595 446 -704 83 -79 119 -98 179 -92 101 10 187 79 215 172 23 77 18 144 -23 286 -15 52 -49 195 -68 285 -9 44 -23 105 -31 135 -133 504 -201 945 -174 1130 16 109 29 148 57 166 23 16 28 15 94 -15 38 -17 87 -33 108 -37 l39 -6 7 -122 c3 -66 13 -164 21 -216 15 -89 20 -112 47 -215 47 -175 77 -215 163 -215 71 0 122 21 135 55 15 38 12 122 -5 185 -9 30 -19 73 -24 95 -47 219 -63 315 -68 402 -5 91 -4 103 11 109 21 8 85 -51 153 -141 64 -85 87 -136 111 -246 24 -110 58 -188 168 -391 113 -208 164 -280 211 -298 15 -6 23 -21 28 -52 6 -36 33 -172 95 -478 12 -60 39 -169 50 -200 4 -14 25 -77 45 -140 41 -126 108 -283 148 -347 36 -57 76 -83 128 -83 38 0 48 5 89 48 25 26 58 55 73 65 63 42 103 188 91 330 -14 171 -91 498 -182 782 -6 17 -20 64 -32 105 -12 41 -28 93 -35 115 -15 46 -43 138 -75 245 -12 41 -28 93 -35 115 -36 111 -47 153 -47 185 1 51 94 264 140 320 l21 25 46 -45 c89 -86 101 -112 108 -230 11 -194 69 -399 132 -465 29 -31 38 -35 84 -35 61 0 142 36 167 75 13 21 15 39 10 92 -8 80 -49 236 -83 318 -31 76 -40 160 -23 231 7 30 17 57 21 60 26 16 124 -101 170 -203 41 -89 51 -139 58 -309 8 -166 19 -202 76 -235 39 -23 145 -25 185 -4 45 23 49 39 40 160 -24 310 -7 462 63 540 38 44 39 44 67 30 70 -36 170 -193 170 -267 0 -29 -15 -66 -60 -146 -52 -93 -60 -114 -60 -160 0 -149 117 -332 212 -332 83 0 152 58 184 154 14 41 16 75 11 198 -7 174 -11 170 103 111 73 -38 90 -58 90 -109 0 -36 55 -195 96 -277 145 -289 242 -322 454 -152 123 99 134 121 125 239 -9 110 -47 231 -108 349 -76 146 -155 212 -279 232 -33 5 -38 10 -39 33 -5 100 42 150 127 137 124 -18 268 -227 424 -615 34 -85 67 -161 73 -168 6 -7 12 -50 15 -95 2 -45 11 -95 19 -110 44 -87 222 -91 285 -7 17 23 18 35 10 125 -7 73 -6 119 3 170 12 67 55 241 76 315 22 71 59 236 59 260 1 25 1 25 29 -8 33 -38 83 -135 187 -362 l75 -165 24 -185 c14 -102 31 -232 40 -290 19 -134 19 -127 -10 -134 -14 -4 -25 -11 -25 -16 0 -6 -9 -10 -20 -10 -29 0 -122 -44 -144 -68 -11 -13 -21 -42 -24 -70 l-4 -49 96 -7 c178 -12 183 -13 200 -57 9 -21 25 -82 36 -136 30 -144 35 -163 62 -223 50 -111 109 -156 189 -146 147 20 167 71 100 258 -35 98 -83 279 -76 286 2 3 24 -1 49 -7 73 -18 121 -14 184 18 66 33 85 52 107 104 18 44 20 107 3 107 -54 1 -402 21 -405 23 -1 2 -7 24 -12 48 -5 24 -18 87 -29 139 -54 253 -87 584 -80 802 7 203 32 255 101 208 86 -59 158 -198 263 -508 40 -118 75 -216 77 -219 12 -11 75 -19 124 -15 l52 4 -6 71 c-20 280 -174 654 -325 793 -64 59 -144 94 -216 94 -154 0 -246 -71 -298 -230 -15 -46 -19 -51 -28 -36 -95 157 -231 302 -303 324 -21 6 -96 14 -168 18 -208 11 -277 -12 -346 -115 -33 -49 -39 -53 -79 -56 -40 -3 -48 0 -97 45 -120 110 -261 145 -405 100 -140 -43 -221 -160 -248 -358 l-12 -88 -46 23 c-35 18 -62 23 -117 23 l-71 0 -59 122 c-90 185 -147 236 -271 246 -112 9 -334 -59 -369 -112 l-17 -26 -57 52 c-151 139 -299 154 -444 43 l-44 -34 -38 39 c-21 21 -65 51 -99 67 -52 24 -73 28 -146 27 -89 0 -118 -10 -200 -67 l-34 -24 -51 41 c-79 64 -181 107 -267 111 -40 2 -87 1 -105 -4z m174 -247 c36 -39 78 -97 98 -137 31 -61 35 -79 35 -146 0 -105 -22 -404 -30 -414 -8 -9 -84 77 -118 133 -73 122 -136 371 -130 512 4 95 16 118 57 118 19 0 42 -17 88 -66z m3323 -64 c29 -29 26 -121 -6 -245 -14 -55 -27 -102 -29 -104 -6 -5 -61 109 -85 177 -12 35 -19 73 -16 85 7 30 80 107 100 107 9 0 25 -9 36 -20z m-723 -417 c50 -55 81 -153 99 -308 l7 -60 -28 25 c-49 46 -87 138 -111 273 -7 45 -14 85 -14 90 0 15 22 6 47 -20z m-2251 -765 c87 -354 90 -365 115 -490 28 -142 22 -178 -13 -73 -33 102 -52 176 -83 320 -11 49 -45 268 -45 289 0 32 12 10 26 -46z"/>
 <path d="M3770 2042 c-91 -45 -115 -172 -48 -257 61 -78 232 -72 296 10 39 49 19 169 -35 217 -53 47 -151 61 -213 30z"/>
 <path d="M9510 1619 c-47 -5 -90 -11 -96 -13 -6 -2 -14 -33 -17 -68 -14 -131 -95 -239 -234 -311 -35 -17 -63 -35 -63 -38 0 -4 14 -39 30 -77 56 -133 34 -270 -58 -365 -48 -49 -174 -91 -274 -90 -120 2 -225 71 -297 196 -35 61 -84 204 -102 295 l-12 62 -1484 0 -1485 0 6 -22 c3 -13 11 -73 16 -135 22 -227 -32 -409 -150 -504 -23 -19 -58 -51 -78 -73 -20 -21 -57 -52 -81 -69 -42 -29 -47 -30 -121 -24 -173 14 -251 72 -342 257 -62 128 -130 311 -173 468 l-28 102 -360 0 c-316 0 -358 -2 -353 -15 3 -8 11 -53 18 -99 15 -105 2 -202 -38 -284 -39 -79 -127 -165 -211 -205 -63 -30 -75 -32 -173 -32 -101 0 -108 1 -170 35 -100 53 -256 223 -346 375 -9 16 -13 9 -32 -41 -30 -82 -88 -163 -146 -201 -80 -54 -195 -87 -306 -87 -85 -1 -101 2 -148 27 -29 15 -86 60 -127 99 -71 67 -75 69 -75 43 0 -83 -63 -234 -124 -297 -103 -106 -309 -198 -442 -198 -114 0 -211 54 -354 199 -142 142 -272 328 -409 584 l-53 97 -306 -2 -307 -3 -3 -602 -2 -603 5000 0 5000 0 0 779 c0 618 -3 781 -13 789 -20 17 -202 50 -302 55 -49 3 -128 1 -175 -4z"/>
 </g>
<g id="layer104" fill="#ffd503" stroke="none">
 <path d="M0 6595 l0 -3405 615 0 615 0 74 25 c98 33 173 33 244 0 l54 -25 700 0 700 0 41 36 c52 44 165 98 235 113 82 17 209 13 295 -9 69 -17 80 -18 112 -4 102 42 277 38 378 -11 l50 -23 51 28 c76 42 149 60 246 60 107 0 184 -20 278 -70 62 -34 77 -38 95 -29 80 43 259 52 360 18 34 -11 77 -30 95 -41 l33 -20 57 22 c41 16 87 24 159 28 118 5 171 -8 266 -65 l59 -36 89 28 c204 62 354 64 475 5 61 -30 63 -30 236 -30 172 0 174 0 209 26 89 68 211 99 356 92 109 -6 175 -27 263 -82 l54 -34 44 39 c24 21 69 49 101 61 52 21 70 23 261 23 240 0 283 -9 380 -81 l62 -45 86 3 c60 3 106 12 147 28 86 33 225 33 310 -1 60 -23 60 -23 588 -26 l527 -3 0 3405 0 3405 -5000 0 -5000 0 0 -3405z m5249 3085 c128 -12 229 -31 322 -61 432 -141 696 -488 749 -984 20 -179 24 -917 9 -1510 -8 -308 -14 -777 -13 -1042 l1 -483 -415 0 -415 0 7 1003 c4 551 11 1108 14 1237 8 261 -1 619 -18 723 -30 187 -136 320 -294 369 -56 17 -85 20 -160 15 -207 -12 -326 -99 -456 -332 -28 -52 -55 -95 -59 -95 -14 0 -224 122 -448 259 l-232 143 43 86 c239 474 752 726 1365 672z m3241 -1 c378 -34 664 -157 880 -378 140 -143 230 -309 276 -508 25 -109 30 -390 10 -512 -41 -246 -139 -426 -329 -608 -169 -161 -388 -288 -807 -468 -400 -171 -520 -241 -602 -349 -75 -100 -90 -266 -34 -380 35 -71 119 -148 194 -177 83 -33 249 -34 344 -1 131 46 257 149 317 262 18 33 34 60 37 60 2 0 93 -54 202 -120 188 -115 327 -209 407 -275 l36 -30 -59 -90 c-248 -380 -613 -564 -1119 -565 -318 0 -587 81 -805 245 -302 227 -447 580 -408 988 19 200 64 338 162 498 72 118 248 292 393 388 135 90 404 224 630 315 288 116 419 190 511 288 77 81 114 175 114 290 0 217 -216 375 -540 395 -179 11 -342 -34 -500 -139 -103 -68 -232 -190 -304 -288 -26 -36 -50 -67 -52 -69 -2 -2 -21 7 -41 21 -21 14 -110 65 -198 113 -259 143 -415 245 -415 271 0 6 24 50 54 97 331 527 932 792 1646 726z m-7621 -479 c48 -277 124 -473 209 -537 65 -50 74 -45 50 30 -26 79 -36 271 -18 360 6 34 24 92 40 129 27 67 113 198 129 198 5 0 10 -42 13 -93 7 -139 51 -222 140 -268 66 -34 79 -28 120 54 20 40 59 99 88 130 49 54 116 104 126 95 2 -3 -6 -45 -18 -94 -31 -127 -33 -338 -2 -404 19 -42 78 -110 95 -110 4 0 9 55 11 123 3 93 8 130 22 157 23 44 73 97 108 116 32 17 26 33 58 -158 37 -219 122 -502 154 -514 7 -3 58 4 112 15 168 34 340 52 565 58 731 20 1310 -148 1672 -487 394 -369 521 -921 407 -1762 -43 -311 -145 -734 -235 -973 -2 -5 26 -24 63 -42 245 -117 453 -334 541 -563 51 -130 66 -227 65 -400 -2 -159 -14 -246 -53 -377 -31 -102 -24 -97 -156 -101 -189 -7 -376 34 -540 116 -165 82 -297 194 -360 305 -19 34 -39 68 -43 75 -7 11 -25 9 -93 -12 -258 -78 -586 -120 -1017 -132 -495 -13 -992 36 -1312 130 l-85 25 -19 -22 c-10 -12 -29 -44 -43 -72 -31 -60 -125 -156 -212 -214 -96 -66 -258 -139 -368 -167 -105 -27 -311 -43 -395 -30 l-46 7 -26 82 c-41 130 -57 248 -57 402 0 214 43 375 143 542 87 147 258 300 433 390 50 25 91 47 92 48 2 1 -13 48 -32 106 -157 462 -259 1110 -241 1519 18 387 88 636 248 887 l40 63 -49 54 c-215 235 -372 548 -417 832 -30 189 -14 430 40 609 17 57 18 59 25 30 4 -16 17 -86 28 -155z"/>
 <path d="M2775 8360 c-575 -32 -1025 -195 -1309 -474 -202 -199 -316 -439 -368 -776 -20 -132 -17 -581 6 -755 42 -326 114 -653 207 -939 27 -83 49 -160 49 -172 0 -44 -43 -87 -136 -135 -132 -67 -209 -122 -295 -210 -201 -205 -282 -483 -234 -803 20 -135 32 -174 57 -187 15 -8 51 -8 137 1 123 13 272 55 372 106 139 70 260 177 308 272 35 70 100 132 137 132 15 0 70 -13 124 -30 307 -95 710 -136 1249 -127 452 7 749 43 1016 123 128 39 153 40 194 12 18 -13 51 -52 71 -88 126 -218 381 -366 690 -400 154 -17 154 -17 182 93 19 79 22 117 22 267 0 161 -3 182 -27 263 -80 262 -259 462 -523 583 -129 60 -139 100 -74 294 161 481 256 1106 230 1516 -28 433 -138 713 -375 950 -139 139 -295 239 -508 323 -311 124 -767 185 -1202 161z m-558 -381 c40 -15 73 -48 94 -94 15 -33 19 -66 19 -194 0 -137 -2 -160 -21 -199 -66 -135 -268 -134 -330 2 -16 34 -19 67 -19 198 0 87 5 169 11 185 34 91 150 139 246 102z m1750 -14 c74 -44 83 -75 83 -275 0 -182 -5 -204 -52 -246 -76 -70 -181 -73 -251 -6 -53 50 -61 76 -65 225 -5 148 5 211 39 259 50 69 166 89 246 43z m-1717 -2266 c25 -11 56 -30 68 -42 57 -53 85 -159 60 -232 -11 -34 -18 -40 -48 -45 -65 -11 -78 -24 -104 -104 -5 -16 -15 -18 -80 -14 -59 3 -81 8 -114 31 -151 99 -139 328 21 403 65 30 135 31 197 3z m1718 5 c126 -52 179 -202 114 -325 -37 -70 -100 -111 -180 -117 l-57 -4 -1 33 c-2 46 -54 93 -98 86 -17 -2 -38 -7 -47 -11 -22 -10 -49 58 -49 125 0 127 101 228 228 229 29 0 69 -7 90 -16z m-2628 -632 c21 -17 23 -28 25 -140 3 -113 5 -127 34 -186 40 -83 39 -115 -5 -194 -122 -223 -303 -352 -515 -369 l-77 -6 -7 86 c-18 211 44 425 169 583 73 93 181 180 279 224 53 24 69 25 97 2z m3395 -21 c249 -139 395 -372 412 -657 3 -55 3 -126 -1 -157 l-7 -57 -48 0 c-57 0 -185 31 -238 58 -73 38 -163 114 -220 186 -57 73 -123 195 -123 230 0 10 11 43 25 71 33 70 47 137 45 215 -3 99 -2 108 20 130 29 29 56 25 135 -19z"/>
 <path d="M4323 3201 c-60 -16 -124 -62 -156 -112 l-30 -49 -47 44 c-81 76 -120 91 -235 91 -95 0 -103 -2 -153 -33 l-53 -32 -49 25 c-152 77 -367 43 -473 -74 -40 -44 -91 -146 -106 -211 -20 -88 -13 -399 14 -600 29 -216 40 -281 61 -370 8 -36 21 -92 29 -125 8 -33 28 -116 44 -185 58 -240 73 -311 69 -315 -6 -6 -109 161 -196 316 -113 203 -222 426 -428 878 -201 442 -230 491 -283 491 -45 0 -149 -56 -171 -92 -22 -36 -26 -102 -10 -178 12 -55 26 -130 45 -235 8 -44 23 -132 34 -195 69 -389 100 -636 108 -845 7 -223 11 -221 -95 -57 -264 407 -443 812 -652 1482 -50 161 -57 177 -89 213 -33 36 -101 38 -170 2 -110 -55 -125 -115 -72 -297 27 -94 61 -236 80 -343 23 -124 50 -261 81 -425 72 -368 93 -556 94 -825 0 -213 -8 -294 -34 -310 -30 -19 -137 91 -232 240 -174 273 -402 746 -424 882 -3 23 -19 55 -38 78 -29 35 -35 37 -68 31 -45 -8 -112 -56 -139 -99 -30 -47 -20 -117 40 -276 108 -287 306 -654 470 -876 64 -86 211 -229 261 -255 64 -33 152 -25 251 23 136 66 182 124 210 267 17 86 15 448 -3 603 -8 64 -10 117 -6 117 4 0 30 -44 57 -99 106 -211 248 -437 330 -524 25 -27 65 -60 89 -74 50 -29 87 -28 196 7 70 23 106 53 140 115 20 38 21 52 20 295 -1 192 -6 288 -21 388 -10 72 -16 132 -13 132 4 0 64 -109 135 -242 226 -427 332 -595 446 -704 83 -79 119 -98 179 -92 101 10 187 79 215 172 23 77 18 144 -23 286 -15 52 -49 195 -68 285 -9 44 -23 105 -31 135 -133 504 -201 945 -174 1130 16 109 29 148 57 166 23 16 28 15 94 -15 38 -17 87 -33 108 -37 l39 -6 7 -122 c3 -66 13 -164 21 -216 15 -89 20 -112 47 -215 47 -175 77 -215 163 -215 71 0 122 21 135 55 15 38 12 122 -5 185 -9 30 -19 73 -24 95 -47 219 -63 315 -68 402 -5 91 -4 103 11 109 21 8 85 -51 153 -141 64 -85 87 -136 111 -246 24 -110 58 -188 168 -391 113 -208 164 -280 211 -298 15 -6 23 -21 28 -52 6 -36 33 -172 95 -478 12 -60 39 -169 50 -200 4 -14 25 -77 45 -140 41 -126 108 -283 148 -347 36 -57 76 -83 128 -83 38 0 48 5 89 48 25 26 58 55 73 65 63 42 103 188 91 330 -14 171 -91 498 -182 782 -6 17 -20 64 -32 105 -12 41 -28 93 -35 115 -15 46 -43 138 -75 245 -12 41 -28 93 -35 115 -36 111 -47 153 -47 185 1 51 94 264 140 320 l21 25 46 -45 c89 -86 101 -112 108 -230 11 -194 69 -399 132 -465 29 -31 38 -35 84 -35 61 0 142 36 167 75 13 21 15 39 10 92 -8 80 -49 236 -83 318 -31 76 -40 160 -23 231 7 30 17 57 21 60 26 16 124 -101 170 -203 41 -89 51 -139 58 -309 8 -166 19 -202 76 -235 39 -23 145 -25 185 -4 45 23 49 39 40 160 -24 310 -7 462 63 540 38 44 39 44 67 30 70 -36 170 -193 170 -267 0 -29 -15 -66 -60 -146 -52 -93 -60 -114 -60 -160 0 -149 117 -332 212 -332 83 0 152 58 184 154 14 41 16 75 11 198 -7 174 -11 170 103 111 73 -38 90 -58 90 -109 0 -36 55 -195 96 -277 145 -289 242 -322 454 -152 123 99 134 121 125 239 -9 110 -47 231 -108 349 -76 146 -155 212 -279 232 -33 5 -38 10 -39 33 -5 100 42 150 127 137 124 -18 268 -227 424 -615 34 -85 67 -161 73 -168 6 -7 12 -50 15 -95 2 -45 11 -95 19 -110 44 -87 222 -91 285 -7 17 23 18 35 10 125 -7 73 -6 119 3 170 12 67 55 241 76 315 22 71 59 236 59 260 1 25 1 25 29 -8 33 -38 83 -135 187 -362 l75 -165 24 -185 c14 -102 31 -232 40 -290 19 -134 19 -127 -10 -134 -14 -4 -25 -11 -25 -16 0 -6 -9 -10 -20 -10 -29 0 -122 -44 -144 -68 -11 -13 -21 -42 -24 -70 l-4 -49 96 -7 c178 -12 183 -13 200 -57 9 -21 25 -82 36 -136 30 -144 35 -163 62 -223 50 -111 109 -156 189 -146 147 20 167 71 100 258 -35 98 -83 279 -76 286 2 3 24 -1 49 -7 73 -18 121 -14 184 18 66 33 85 52 107 104 18 44 20 107 3 107 -54 1 -402 21 -405 23 -1 2 -7 24 -12 48 -5 24 -18 87 -29 139 -54 253 -87 584 -80 802 7 203 32 255 101 208 86 -59 158 -198 263 -508 40 -118 75 -216 77 -219 12 -11 75 -19 124 -15 l52 4 -6 71 c-20 280 -174 654 -325 793 -64 59 -144 94 -216 94 -154 0 -246 -71 -298 -230 -15 -46 -19 -51 -28 -36 -95 157 -231 302 -303 324 -21 6 -96 14 -168 18 -208 11 -277 -12 -346 -115 -33 -49 -39 -53 -79 -56 -40 -3 -48 0 -97 45 -120 110 -261 145 -405 100 -140 -43 -221 -160 -248 -358 l-12 -88 -46 23 c-35 18 -62 23 -117 23 l-71 0 -59 122 c-90 185 -147 236 -271 246 -112 9 -334 -59 -369 -112 l-17 -26 -57 52 c-151 139 -299 154 -444 43 l-44 -34 -38 39 c-21 21 -65 51 -99 67 -52 24 -73 28 -146 27 -89 0 -118 -10 -200 -67 l-34 -24 -51 41 c-79 64 -181 107 -267 111 -40 2 -87 1 -105 -4z m174 -247 c36 -39 78 -97 98 -137 31 -61 35 -79 35 -146 0 -105 -22 -404 -30 -414 -8 -9 -84 77 -118 133 -73 122 -136 371 -130 512 4 95 16 118 57 118 19 0 42 -17 88 -66z m3323 -64 c29 -29 26 -121 -6 -245 -14 -55 -27 -102 -29 -104 -6 -5 -61 109 -85 177 -12 35 -19 73 -16 85 7 30 80 107 100 107 9 0 25 -9 36 -20z m-723 -417 c50 -55 81 -153 99 -308 l7 -60 -28 25 c-49 46 -87 138 -111 273 -7 45 -14 85 -14 90 0 15 22 6 47 -20z m-2251 -765 c87 -354 90 -365 115 -490 28 -142 22 -178 -13 -73 -33 102 -52 176 -83 320 -11 49 -45 268 -45 289 0 32 12 10 26 -46z"/>
 <path d="M3770 2042 c-91 -45 -115 -172 -48 -257 61 -78 232 -72 296 10 39 49 19 169 -35 217 -53 47 -151 61 -213 30z"/>
 <path d="M9510 1619 c-47 -5 -90 -11 -96 -13 -6 -2 -14 -33 -17 -68 -14 -131 -95 -239 -234 -311 -35 -17 -63 -35 -63 -38 0 -4 14 -39 30 -77 56 -133 34 -270 -58 -365 -48 -49 -174 -91 -274 -90 -120 2 -225 71 -297 196 -35 61 -84 204 -102 295 l-12 62 -1484 0 -1485 0 6 -22 c3 -13 11 -73 16 -135 22 -227 -32 -409 -150 -504 -23 -19 -58 -51 -78 -73 -20 -21 -57 -52 -81 -69 -42 -29 -47 -30 -121 -24 -173 14 -251 72 -342 257 -62 128 -130 311 -173 468 l-28 102 -360 0 c-316 0 -358 -2 -353 -15 3 -8 11 -53 18 -99 15 -105 2 -202 -38 -284 -39 -79 -127 -165 -211 -205 -63 -30 -75 -32 -173 -32 -101 0 -108 1 -170 35 -100 53 -256 223 -346 375 -9 16 -13 9 -32 -41 -30 -82 -88 -163 -146 -201 -80 -54 -195 -87 -306 -87 -85 -1 -101 2 -148 27 -29 15 -86 60 -127 99 -71 67 -75 69 -75 43 0 -83 -63 -234 -124 -297 -103 -106 -309 -198 -442 -198 -114 0 -211 54 -354 199 -142 142 -272 328 -409 584 l-53 97 -306 -2 -307 -3 -3 -602 -2 -603 5000 0 5000 0 0 779 c0 618 -3 781 -13 789 -20 17 -202 50 -302 55 -49 3 -128 1 -175 -4z"/>
 </g>
<g id="layer105" fill="#bbb098" stroke="none">
 <path d="M6360 9983 c1 -44 32 -159 57 -211 34 -71 150 -190 218 -225 161 -81 356 -79 503 5 144 82 262 270 262 415 l0 33 -520 0 c-489 0 -520 -1 -520 -17z"/>
 <path d="M0 7420 c0 -621 4 -1130 8 -1130 5 0 40 11 78 24 327 111 611 401 717 731 36 112 46 166 56 278 19 231 -37 487 -149 677 -115 195 -285 358 -475 457 -65 33 -213 93 -231 93 -2 0 -4 -508 -4 -1130z"/>
 <path d="M2775 8360 c-575 -32 -1025 -195 -1309 -474 -202 -199 -316 -439 -368 -776 -20 -132 -17 -581 6 -755 42 -326 114 -653 207 -939 27 -83 49 -160 49 -172 0 -44 -43 -87 -136 -135 -132 -67 -209 -122 -295 -210 -201 -205 -282 -483 -234 -803 20 -135 32 -174 57 -187 15 -8 51 -8 137 1 123 13 272 55 372 106 139 70 260 177 308 272 35 70 100 132 137 132 15 0 70 -13 124 -30 307 -95 710 -136 1249 -127 452 7 749 43 1016 123 128 39 153 40 194 12 18 -13 51 -52 71 -88 126 -218 381 -366 690 -400 154 -17 154 -17 182 93 19 79 22 117 22 267 0 161 -3 182 -27 263 -80 262 -259 462 -523 583 -129 60 -139 100 -74 294 161 481 256 1106 230 1516 -28 433 -138 713 -375 950 -139 139 -295 239 -508 323 -311 124 -767 185 -1202 161z m-558 -381 c40 -15 73 -48 94 -94 15 -33 19 -66 19 -194 0 -137 -2 -160 -21 -199 -66 -135 -268 -134 -330 2 -16 34 -19 67 -19 198 0 87 5 169 11 185 34 91 150 139 246 102z m1750 -14 c74 -44 83 -75 83 -275 0 -182 -5 -204 -52 -246 -76 -70 -181 -73 -251 -6 -53 50 -61 76 -65 225 -5 148 5 211 39 259 50 69 166 89 246 43z m-1717 -2266 c25 -11 56 -30 68 -42 57 -53 85 -159 60 -232 -11 -34 -18 -40 -48 -45 -65 -11 -78 -24 -104 -104 -5 -16 -15 -18 -80 -14 -59 3 -81 8 -114 31 -151 99 -139 328 21 403 65 30 135 31 197 3z m1718 5 c126 -52 179 -202 114 -325 -37 -70 -100 -111 -180 -117 l-57 -4 -1 33 c-2 46 -54 93 -98 86 -17 -2 -38 -7 -47 -11 -22 -10 -49 58 -49 125 0 127 101 228 228 229 29 0 69 -7 90 -16z m-2628 -632 c21 -17 23 -28 25 -140 3 -113 5 -127 34 -186 40 -83 39 -115 -5 -194 -122 -223 -303 -352 -515 -369 l-77 -6 -7 86 c-18 211 44 425 169 583 73 93 181 180 279 224 53 24 69 25 97 2z m3395 -21 c249 -139 395 -372 412 -657 3 -55 3 -126 -1 -157 l-7 -57 -48 0 c-57 0 -185 31 -238 58 -73 38 -163 114 -220 186 -57 73 -123 195 -123 230 0 10 11 43 25 71 33 70 47 137 45 215 -3 99 -2 108 20 130 29 29 56 25 135 -19z"/>
 <path d="M8831 4630 c-130 -27 -231 -151 -231 -286 0 -82 23 -144 76 -203 137 -153 386 -121 482 63 23 44 27 63 27 136 0 100 -17 142 -82 208 -71 70 -174 101 -272 82z"/>
 <path d="M6441 4495 c-445 -97 -744 -463 -744 -910 0 -174 52 -374 102 -390 11 -3 56 5 103 20 196 62 354 64 474 5 61 -30 63 -30 236 -30 172 0 174 0 209 26 80 61 190 93 319 94 103 0 184 -19 267 -65 34 -19 65 -30 68 -25 3 5 17 46 30 90 97 325 23 659 -199 897 -193 207 -417 304 -695 302 -58 0 -135 -7 -170 -14z"/>
 <path d="M4323 3201 c-60 -16 -124 -62 -156 -112 l-30 -49 -47 44 c-81 76 -120 91 -235 91 -95 0 -103 -2 -153 -33 l-53 -32 -49 25 c-152 77 -367 43 -473 -74 -40 -44 -91 -146 -106 -211 -20 -88 -13 -399 14 -600 29 -216 40 -281 61 -370 8 -36 21 -92 29 -125 8 -33 28 -116 44 -185 58 -240 73 -311 69 -315 -6 -6 -109 161 -196 316 -113 203 -222 426 -428 878 -201 442 -230 491 -283 491 -45 0 -149 -56 -171 -92 -22 -36 -26 -102 -10 -178 12 -55 26 -130 45 -235 8 -44 23 -132 34 -195 69 -389 100 -636 108 -845 7 -223 11 -221 -95 -57 -264 407 -443 812 -652 1482 -50 161 -57 177 -89 213 -33 36 -101 38 -170 2 -110 -55 -125 -115 -72 -297 27 -94 61 -236 80 -343 23 -124 50 -261 81 -425 72 -368 93 -556 94 -825 0 -213 -8 -294 -34 -310 -30 -19 -137 91 -232 240 -174 273 -402 746 -424 882 -3 23 -19 55 -38 78 -29 35 -35 37 -68 31 -45 -8 -112 -56 -139 -99 -30 -47 -20 -117 40 -276 108 -287 306 -654 470 -876 64 -86 211 -229 261 -255 64 -33 152 -25 251 23 136 66 182 124 210 267 17 86 15 448 -3 603 -8 64 -10 117 -6 117 4 0 30 -44 57 -99 106 -211 248 -437 330 -524 25 -27 65 -60 89 -74 50 -29 87 -28 196 7 70 23 106 53 140 115 20 38 21 52 20 295 -1 192 -6 288 -21 388 -10 72 -16 132 -13 132 4 0 64 -109 135 -242 226 -427 332 -595 446 -704 83 -79 119 -98 179 -92 101 10 187 79 215 172 23 77 18 144 -23 286 -15 52 -49 195 -68 285 -9 44 -23 105 -31 135 -133 504 -201 945 -174 1130 16 109 29 148 57 166 23 16 28 15 94 -15 38 -17 87 -33 108 -37 l39 -6 7 -122 c3 -66 13 -164 21 -216 15 -89 20 -112 47 -215 47 -175 77 -215 163 -215 71 0 122 21 135 55 15 38 12 122 -5 185 -9 30 -19 73 -24 95 -47 219 -63 315 -68 402 -5 91 -4 103 11 109 21 8 85 -51 153 -141 64 -85 87 -136 111 -246 24 -110 58 -188 168 -391 113 -208 164 -280 211 -298 15 -6 23 -21 28 -52 6 -36 33 -172 95 -478 12 -60 39 -169 50 -200 4 -14 25 -77 45 -140 41 -126 108 -283 148 -347 36 -57 76 -83 128 -83 38 0 48 5 89 48 25 26 58 55 73 65 63 42 103 188 91 330 -14 171 -91 498 -182 782 -6 17 -20 64 -32 105 -12 41 -28 93 -35 115 -15 46 -43 138 -75 245 -12 41 -28 93 -35 115 -36 111 -47 153 -47 185 1 51 94 264 140 320 l21 25 46 -45 c89 -86 101 -112 108 -230 11 -194 69 -399 132 -465 29 -31 38 -35 84 -35 61 0 142 36 167 75 13 21 15 39 10 92 -8 80 -49 236 -83 318 -31 76 -40 160 -23 231 7 30 17 57 21 60 26 16 124 -101 170 -203 41 -89 51 -139 58 -309 8 -166 19 -202 76 -235 39 -23 145 -25 185 -4 45 23 49 39 40 160 -24 310 -7 462 63 540 38 44 39 44 67 30 70 -36 170 -193 170 -267 0 -29 -15 -66 -60 -146 -52 -93 -60 -114 -60 -160 0 -149 117 -332 212 -332 83 0 152 58 184 154 14 41 16 75 11 198 -7 174 -11 170 103 111 73 -38 90 -58 90 -109 0 -36 55 -195 96 -277 145 -289 242 -322 454 -152 123 99 134 121 125 239 -9 110 -47 231 -108 349 -76 146 -155 212 -279 232 -33 5 -38 10 -39 33 -5 100 42 150 127 137 124 -18 268 -227 424 -615 34 -85 67 -161 73 -168 6 -7 12 -50 15 -95 2 -45 11 -95 19 -110 44 -87 222 -91 285 -7 17 23 18 35 10 125 -7 73 -6 119 3 170 12 67 55 241 76 315 22 71 59 236 59 260 1 25 1 25 29 -8 33 -38 83 -135 187 -362 l75 -165 24 -185 c14 -102 31 -232 40 -290 19 -134 19 -127 -10 -134 -14 -4 -25 -11 -25 -16 0 -6 -9 -10 -20 -10 -29 0 -122 -44 -144 -68 -11 -13 -21 -42 -24 -70 l-4 -49 96 -7 c178 -12 183 -13 200 -57 9 -21 25 -82 36 -136 30 -144 35 -163 62 -223 50 -111 109 -156 189 -146 147 20 167 71 100 258 -35 98 -83 279 -76 286 2 3 24 -1 49 -7 73 -18 121 -14 184 18 66 33 85 52 107 104 18 44 20 107 3 107 -54 1 -402 21 -405 23 -1 2 -7 24 -12 48 -5 24 -18 87 -29 139 -54 253 -87 584 -80 802 7 203 32 255 101 208 86 -59 158 -198 263 -508 40 -118 75 -216 77 -219 12 -11 75 -19 124 -15 l52 4 -6 71 c-20 280 -174 654 -325 793 -64 59 -144 94 -216 94 -154 0 -246 -71 -298 -230 -15 -46 -19 -51 -28 -36 -95 157 -231 302 -303 324 -21 6 -96 14 -168 18 -208 11 -277 -12 -346 -115 -33 -49 -39 -53 -79 -56 -40 -3 -48 0 -97 45 -120 110 -261 145 -405 100 -140 -43 -221 -160 -248 -358 l-12 -88 -46 23 c-35 18 -62 23 -117 23 l-71 0 -59 122 c-90 185 -147 236 -271 246 -112 9 -334 -59 -369 -112 l-17 -26 -57 52 c-151 139 -299 154 -444 43 l-44 -34 -38 39 c-21 21 -65 51 -99 67 -52 24 -73 28 -146 27 -89 0 -118 -10 -200 -67 l-34 -24 -51 41 c-79 64 -181 107 -267 111 -40 2 -87 1 -105 -4z m174 -247 c36 -39 78 -97 98 -137 31 -61 35 -79 35 -146 0 -105 -22 -404 -30 -414 -8 -9 -84 77 -118 133 -73 122 -136 371 -130 512 4 95 16 118 57 118 19 0 42 -17 88 -66z m3323 -64 c29 -29 26 -121 -6 -245 -14 -55 -27 -102 -29 -104 -6 -5 -61 109 -85 177 -12 35 -19 73 -16 85 7 30 80 107 100 107 9 0 25 -9 36 -20z m-723 -417 c50 -55 81 -153 99 -308 l7 -60 -28 25 c-49 46 -87 138 -111 273 -7 45 -14 85 -14 90 0 15 22 6 47 -20z m-2251 -765 c87 -354 90 -365 115 -490 28 -142 22 -178 -13 -73 -33 102 -52 176 -83 320 -11 49 -45 268 -45 289 0 32 12 10 26 -46z"/>
 <path d="M3770 2042 c-91 -45 -115 -172 -48 -257 61 -78 232 -72 296 10 39 49 19 169 -35 217 -53 47 -151 61 -213 30z"/>
 <path d="M9510 1619 c-47 -5 -90 -11 -96 -13 -6 -2 -14 -33 -17 -68 -14 -131 -95 -239 -234 -311 -35 -17 -63 -35 -63 -38 0 -4 14 -39 30 -77 56 -133 34 -270 -58 -365 -29 -30 -55 -44 -122 -64 -164 -51 -280 -27 -380 78 -49 51 -50 51 -59 28 -27 -73 -45 -202 -45 -334 -1 -147 13 -236 57 -378 l23 -72 727 -3 727 -2 0 779 c0 618 -3 781 -13 789 -20 17 -202 50 -302 55 -49 3 -128 1 -175 -4z"/>
 <path d="M6653 923 c-57 -20 -133 -89 -163 -149 -33 -66 -35 -178 -4 -245 30 -63 79 -116 138 -147 44 -23 63 -27 136 -27 77 0 90 3 140 31 174 98 207 331 65 469 -32 31 -70 57 -101 68 -59 21 -153 21 -211 0z"/>
 </g>
<g id="layer106" fill="#f5d9b8" stroke="none">
 <path d="M6360 9983 c1 -44 32 -159 57 -211 34 -71 150 -190 218 -225 161 -81 356 -79 503 5 144 82 262 270 262 415 l0 33 -520 0 c-489 0 -520 -1 -520 -17z"/>
 <path d="M0 7420 c0 -621 4 -1130 8 -1130 5 0 40 11 78 24 327 111 611 401 717 731 36 112 46 166 56 278 19 231 -37 487 -149 677 -115 195 -285 358 -475 457 -65 33 -213 93 -231 93 -2 0 -4 -508 -4 -1130z"/>
 <path d="M2910 8367 c-3 -3 -63 -8 -135 -12 -147 -7 -160 -8 -270 -24 -243 -36 -400 -75 -560 -141 -32 -13 -208 -100 -229 -113 -240 -150 -375 -297 -487 -527 -75 -154 -117 -314 -140 -529 -22 -216 3 -679 50 -901 5 -25 17 -85 26 -135 31 -161 95 -411 146 -566 27 -83 49 -161 49 -174 0 -45 -42 -88 -130 -133 -157 -79 -283 -180 -371 -297 -70 -92 -93 -133 -126 -230 -63 -186 -69 -390 -17 -595 23 -88 31 -93 129 -85 335 29 619 182 731 395 58 110 119 141 211 105 108 -41 325 -84 618 -122 230 -29 980 -26 1162 5 l42 7 -55 70 c-117 149 -212 337 -262 515 -23 86 -26 112 -26 275 0 167 2 187 27 270 78 259 253 501 462 640 242 161 549 212 865 143 52 -11 115 -28 141 -38 l47 -19 6 42 c87 553 61 983 -79 1317 -19 47 -44 97 -55 112 -11 15 -20 29 -20 32 0 18 -98 143 -165 211 -130 130 -202 181 -390 274 -247 123 -543 194 -905 216 -41 2 -122 7 -180 11 -58 3 -107 4 -110 1z m1058 -404 c71 -40 81 -71 83 -271 1 -162 0 -172 -22 -214 -60 -107 -235 -118 -304 -18 -36 53 -44 95 -45 235 0 179 22 235 108 279 56 29 117 25 180 -11z m-1732 8 c29 -13 48 -32 67 -66 26 -46 27 -53 27 -205 0 -90 -5 -171 -11 -191 -47 -139 -245 -159 -331 -34 -27 40 -27 41 -28 210 0 158 2 174 23 215 42 84 155 115 253 71z m14 -2272 c25 -11 56 -30 68 -42 57 -53 85 -159 60 -232 -11 -34 -18 -40 -48 -45 -65 -11 -78 -24 -104 -104 -5 -16 -15 -18 -80 -14 -59 3 -81 8 -114 31 -151 99 -139 328 21 403 65 30 135 31 197 3z m-903 -635 c24 -24 25 -30 19 -92 -8 -78 12 -190 44 -249 29 -55 25 -97 -16 -171 -74 -135 -170 -236 -285 -301 -74 -41 -138 -60 -230 -68 l-77 -6 -7 87 c-14 162 27 357 101 485 74 126 192 240 318 306 81 42 99 43 133 9z"/>
 <path d="M8831 4630 c-130 -27 -231 -151 -231 -286 0 -82 23 -144 76 -203 137 -153 386 -121 482 63 23 44 27 63 27 136 0 100 -17 142 -82 208 -71 70 -174 101 -272 82z"/>
 <path d="M6441 4495 c-367 -80 -635 -340 -723 -702 -26 -111 -29 -294 -4 -398 39 -167 75 -222 130 -197 41 18 218 60 278 66 84 7 184 -10 257 -44 62 -30 66 -30 231 -30 l168 0 54 35 c87 58 149 77 273 82 130 6 206 -9 302 -62 34 -19 65 -30 68 -25 3 5 17 46 30 90 97 325 23 659 -199 897 -193 207 -417 304 -695 302 -58 0 -135 -7 -170 -14z"/>
 <path d="M4360 3204 c-94 -18 -173 -72 -209 -142 -12 -22 -12 -22 -72 28 -33 28 -74 57 -91 66 -72 37 -223 26 -294 -22 l-37 -25 -58 25 c-161 73 -347 47 -457 -64 -98 -98 -132 -212 -132 -440 0 -315 46 -599 190 -1175 52 -209 51 -205 41 -205 -12 0 -175 272 -281 470 -97 180 -122 232 -362 760 -132 291 -188 404 -213 429 l-34 35 -60 -19 c-149 -45 -174 -100 -131 -290 14 -63 19 -92 75 -420 53 -315 71 -434 90 -605 16 -139 20 -400 6 -400 -11 0 -127 178 -212 325 -93 163 -249 489 -322 675 -74 189 -110 292 -201 580 -76 238 -96 270 -170 270 -54 0 -135 -39 -170 -81 -26 -31 -28 -38 -23 -94 4 -33 16 -94 27 -135 31 -107 57 -219 79 -340 11 -58 29 -152 40 -210 119 -625 134 -746 135 -1070 1 -199 -8 -279 -34 -295 -16 -10 -63 21 -106 67 -156 169 -481 785 -543 1028 -13 52 -26 80 -51 105 -19 19 -40 35 -47 35 -27 0 -111 -50 -137 -80 -35 -42 -40 -68 -26 -137 31 -152 207 -540 358 -791 146 -242 254 -373 396 -478 52 -39 64 -44 113 -44 98 0 271 86 320 159 36 53 53 124 64 266 13 159 -1 440 -27 573 -13 63 15 30 81 -95 165 -317 310 -519 408 -569 75 -40 258 10 305 82 46 70 52 105 52 298 0 172 -14 329 -44 511 -8 44 -12 82 -10 84 1 1 22 -35 45 -80 76 -152 260 -492 325 -600 112 -187 232 -332 308 -371 127 -66 297 34 322 189 7 44 -15 173 -46 273 -11 36 -31 119 -45 185 -13 66 -43 192 -65 280 -74 292 -126 573 -151 825 -21 211 5 374 64 401 20 9 35 5 93 -21 38 -17 86 -33 107 -34 l37 -2 5 -108 c5 -125 36 -320 71 -455 49 -183 70 -211 161 -211 59 0 103 18 127 52 26 37 24 61 -35 323 -31 134 -52 283 -53 370 -1 127 10 132 92 48 86 -89 151 -201 173 -299 26 -120 76 -243 158 -394 117 -213 138 -245 195 -297 46 -43 55 -57 65 -104 6 -30 25 -124 42 -209 31 -153 36 -178 63 -295 50 -218 120 -423 197 -576 54 -108 81 -135 144 -145 l44 -6 90 82 c99 91 117 122 132 230 11 77 -1 198 -37 377 -21 106 -37 170 -84 333 -5 19 -55 184 -111 365 -204 672 -187 594 -149 692 39 100 110 233 132 247 21 13 52 -13 114 -99 41 -55 44 -63 44 -125 1 -113 52 -353 96 -445 37 -80 65 -99 137 -91 65 7 128 35 151 68 18 25 20 75 7 128 -5 19 -14 62 -22 95 -7 33 -28 103 -47 155 -21 55 -37 121 -39 157 -5 64 11 168 27 178 16 10 90 -67 132 -137 76 -128 90 -182 97 -370 7 -181 11 -195 74 -242 33 -25 134 -34 177 -16 50 21 56 37 48 141 -12 183 -9 412 7 467 17 57 72 135 98 140 28 6 133 -108 167 -180 43 -90 40 -124 -19 -227 -62 -111 -75 -151 -68 -218 7 -64 54 -170 103 -230 65 -79 155 -83 229 -9 68 68 79 118 72 304 l-7 153 23 -6 c12 -4 54 -24 92 -45 l70 -38 27 -104 c31 -123 74 -232 126 -317 103 -168 181 -212 285 -160 59 31 137 90 195 149 60 61 68 96 47 232 -22 148 -85 297 -170 401 -54 67 -111 103 -185 117 -30 6 -58 16 -62 23 -11 16 1 86 18 113 18 26 56 44 95 44 127 0 282 -221 444 -630 32 -80 64 -152 71 -161 9 -10 14 -42 14 -93 0 -125 35 -164 155 -173 55 -4 64 -2 107 27 26 17 50 40 53 50 3 10 1 56 -5 103 -13 103 -4 173 45 358 19 74 49 195 65 269 17 74 32 139 34 145 4 15 76 -102 121 -200 174 -373 173 -369 189 -515 9 -74 23 -182 31 -240 8 -58 18 -131 22 -162 5 -55 5 -58 -16 -58 -12 0 -29 -7 -37 -15 -9 -8 -24 -15 -35 -15 -31 0 -94 -36 -123 -70 -18 -22 -26 -43 -26 -69 l0 -37 137 -12 c75 -6 140 -15 145 -20 5 -5 22 -65 38 -133 56 -234 92 -324 150 -373 43 -36 72 -41 139 -25 109 26 136 89 87 200 -41 95 -105 323 -93 335 2 2 41 -1 88 -8 81 -11 86 -10 134 15 87 44 135 109 135 181 l0 33 -77 7 c-42 3 -115 6 -163 6 -48 0 -108 3 -133 6 -52 7 -50 4 -86 194 -58 304 -71 417 -78 655 -9 303 13 396 87 365 86 -36 174 -204 291 -556 70 -209 61 -200 189 -196 l46 2 -7 83 c-26 285 -159 616 -308 765 -81 81 -138 106 -241 106 -69 1 -93 -3 -126 -21 -77 -41 -126 -106 -164 -217 l-17 -50 -32 60 c-45 84 -123 177 -203 239 -61 48 -75 54 -136 62 -103 12 -292 10 -333 -5 -41 -14 -92 -62 -128 -119 -23 -36 -28 -38 -71 -38 -41 0 -54 6 -106 49 -32 27 -88 63 -124 80 -58 27 -75 30 -156 30 -79 0 -98 -4 -155 -31 -121 -56 -191 -179 -214 -374 l-7 -55 -46 24 c-40 20 -58 23 -118 19 l-72 -4 -58 126 c-32 69 -74 143 -93 164 -67 74 -146 97 -269 78 -121 -19 -223 -56 -261 -95 l-33 -34 -75 63 c-97 82 -164 110 -248 100 -73 -8 -129 -31 -178 -74 l-37 -33 -53 46 c-79 67 -136 90 -227 89 -87 -1 -148 -20 -203 -64 l-38 -31 -59 46 c-108 85 -236 128 -330 110z m68 -188 c38 -20 113 -102 149 -161 51 -86 56 -115 49 -264 -9 -209 -19 -351 -22 -351 -13 0 -96 104 -126 158 -45 81 -104 255 -118 348 -15 109 -13 236 6 262 18 26 26 27 62 8z m3392 -126 c26 -26 27 -105 1 -233 -29 -143 -30 -144 -83 -30 -72 153 -72 194 2 257 38 31 54 32 80 6z m-725 -412 c39 -31 71 -110 90 -224 9 -55 18 -112 22 -129 l5 -30 -36 35 c-20 19 -45 53 -56 76 -42 86 -86 294 -63 294 6 0 23 -10 38 -22z m-2206 -933 c22 -88 45 -180 51 -205 14 -64 50 -279 49 -298 -2 -41 -91 247 -118 383 -7 33 -17 78 -21 100 -11 50 -40 270 -39 293 1 20 23 -56 78 -273z"/>
 <path d="M3785 2048 c-82 -45 -121 -138 -89 -216 23 -60 90 -102 161 -102 64 0 107 16 152 59 33 31 33 33 27 87 -13 116 -84 184 -189 184 -23 0 -51 -6 -62 -12z"/>
 <path d="M9555 1624 c-22 -2 -65 -9 -96 -15 l-57 -11 -4 -58 c-9 -123 -99 -245 -229 -310 -35 -18 -65 -34 -67 -35 -2 -2 10 -38 27 -80 43 -107 45 -188 7 -270 -42 -92 -86 -131 -181 -161 -166 -53 -282 -30 -385 77 -49 51 -50 51 -59 28 -27 -73 -45 -202 -45 -334 -1 -147 13 -236 57 -378 l23 -72 727 -3 727 -2 0 779 c0 618 -3 781 -13 789 -34 29 -324 66 -432 56z"/>
 <path d="M6653 923 c-57 -20 -133 -89 -163 -149 -33 -66 -35 -178 -4 -245 30 -63 79 -116 138 -147 44 -23 63 -27 136 -27 77 0 90 3 140 31 174 98 207 331 65 469 -32 31 -70 57 -101 68 -59 21 -153 21 -211 0z"/>
 </g>
<g id="layer107" fill="#fafafb" stroke="none">
 <path d="M6368 9982 c-9 -32 19 -142 53 -210 45 -91 144 -190 232 -231 38 -18 105 -39 148 -46 70 -13 90 -12 167 2 48 8 91 19 97 24 5 5 16 9 24 9 24 0 151 92 187 135 67 82 108 182 121 293 l4 42 -514 0 c-491 0 -515 -1 -519 -18z"/>
 <path d="M0 7420 c0 -638 4 -1130 9 -1130 47 0 264 102 353 167 172 123 288 259 377 438 68 137 106 271 118 410 9 109 9 121 0 210 -29 306 -143 546 -352 743 -106 100 -163 141 -265 195 -70 36 -217 97 -236 97 -2 0 -4 -508 -4 -1130z"/>
 <path d="M1140 7307 c-16 -36 -38 -165 -51 -286 -22 -216 3 -679 50 -901 5 -25 17 -85 26 -135 31 -161 95 -411 146 -566 27 -83 49 -161 49 -174 0 -45 -42 -88 -130 -133 -157 -79 -283 -180 -371 -297 -70 -92 -93 -133 -126 -230 -63 -186 -69 -390 -17 -595 23 -88 31 -93 129 -85 335 29 619 182 731 395 58 110 119 141 211 105 108 -41 325 -84 618 -122 230 -29 980 -26 1162 5 l42 7 -55 70 c-117 149 -212 337 -262 515 -23 86 -26 112 -26 275 0 167 2 187 27 270 78 259 253 501 462 640 242 161 549 212 865 143 52 -11 115 -28 141 -38 l47 -19 6 42 c43 276 59 524 46 731 -10 159 -25 265 -38 278 -5 5 -49 -10 -98 -33 -1131 -523 -2598 -486 -3466 87 -105 69 -110 71 -118 51z m1110 -1608 c25 -11 56 -30 68 -42 57 -53 85 -159 60 -232 -11 -34 -18 -40 -48 -45 -65 -11 -78 -24 -104 -104 -5 -16 -15 -18 -80 -14 -59 3 -81 8 -114 31 -151 99 -139 328 21 403 65 30 135 31 197 3z m-903 -635 c24 -24 25 -30 19 -92 -8 -78 12 -190 44 -249 29 -55 25 -97 -16 -171 -74 -135 -170 -236 -285 -301 -74 -41 -138 -60 -230 -68 l-77 -6 -7 87 c-14 162 27 357 101 485 74 126 192 240 318 306 81 42 99 43 133 9z"/>
 <path d="M8824 4626 c-60 -15 -65 -18 -122 -65 -27 -22 -55 -60 -74 -99 -29 -58 -30 -68 -25 -137 7 -92 34 -152 90 -200 67 -58 117 -77 202 -77 92 0 167 33 218 95 59 72 70 104 71 193 1 95 -20 147 -91 219 -66 67 -173 95 -269 71z"/>
 <path d="M6465 4498 c-224 -48 -392 -139 -525 -285 -60 -65 -133 -174 -156 -231 -8 -20 -22 -52 -30 -70 -43 -94 -68 -300 -52 -427 29 -219 77 -317 142 -287 41 18 218 60 278 66 84 7 184 -10 257 -44 62 -30 66 -30 231 -30 l168 0 54 35 c87 58 149 77 273 82 130 6 206 -9 303 -62 43 -24 64 -31 67 -22 2 6 13 38 24 69 52 146 58 368 15 542 -20 79 -93 228 -147 302 -85 115 -255 250 -381 302 -145 59 -392 88 -521 60z"/>
 <path d="M4360 3204 c-94 -18 -173 -72 -209 -142 -12 -22 -12 -22 -72 28 -33 28 -74 57 -91 66 -72 37 -223 26 -294 -22 l-37 -25 -58 25 c-161 73 -347 47 -457 -64 -98 -98 -132 -212 -132 -440 0 -315 46 -599 190 -1175 52 -209 51 -205 41 -205 -12 0 -175 272 -281 470 -97 180 -122 232 -362 760 -132 291 -188 404 -213 429 l-34 35 -60 -19 c-149 -45 -174 -100 -131 -290 14 -63 19 -92 75 -420 53 -315 71 -434 90 -605 16 -139 20 -400 6 -400 -11 0 -127 178 -212 325 -93 163 -249 489 -322 675 -74 189 -110 292 -201 580 -76 238 -96 270 -170 270 -54 0 -135 -39 -170 -81 -26 -31 -28 -38 -23 -94 4 -33 16 -94 27 -135 31 -107 57 -219 79 -340 11 -58 29 -152 40 -210 119 -625 134 -746 135 -1070 1 -199 -8 -279 -34 -295 -16 -10 -63 21 -106 67 -156 169 -481 785 -543 1028 -13 52 -26 80 -51 105 -19 19 -40 35 -47 35 -27 0 -111 -50 -137 -80 -35 -42 -40 -68 -26 -137 31 -152 207 -540 358 -791 146 -242 254 -373 396 -478 52 -39 64 -44 113 -44 98 0 271 86 320 159 36 53 53 124 64 266 13 159 -1 440 -27 573 -13 63 15 30 81 -95 165 -317 310 -519 408 -569 75 -40 258 10 305 82 46 70 52 105 52 298 0 172 -14 329 -44 511 -8 44 -12 82 -10 84 1 1 22 -35 45 -80 76 -152 260 -492 325 -600 112 -187 232 -332 308 -371 127 -66 297 34 322 189 7 44 -15 173 -46 273 -11 36 -31 119 -45 185 -13 66 -43 192 -65 280 -74 292 -126 573 -151 825 -21 211 5 374 64 401 20 9 35 5 93 -21 38 -17 86 -33 107 -34 l37 -2 5 -108 c5 -125 36 -320 71 -455 49 -183 70 -211 161 -211 59 0 103 18 127 52 26 37 24 61 -35 323 -31 134 -52 283 -53 370 -1 127 10 132 92 48 86 -89 151 -201 173 -299 26 -120 76 -243 158 -394 117 -213 138 -245 195 -297 46 -43 55 -57 65 -104 6 -30 25 -124 42 -209 31 -153 36 -178 63 -295 50 -218 120 -423 197 -576 54 -108 81 -135 144 -145 l44 -6 90 82 c99 91 117 122 132 230 11 77 -1 198 -37 377 -21 106 -37 170 -84 333 -5 19 -55 184 -111 365 -204 672 -187 594 -149 692 39 100 110 233 132 247 21 13 52 -13 114 -99 41 -55 44 -63 44 -125 1 -113 52 -353 96 -445 37 -80 65 -99 137 -91 65 7 128 35 151 68 18 25 20 75 7 128 -5 19 -14 62 -22 95 -7 33 -28 103 -47 155 -21 55 -37 121 -39 157 -5 64 11 168 27 178 16 10 90 -67 132 -137 76 -128 90 -182 97 -370 7 -181 11 -195 74 -242 33 -25 134 -34 177 -16 50 21 56 37 48 141 -12 183 -9 412 7 467 17 57 72 135 98 140 28 6 133 -108 167 -180 43 -90 40 -124 -19 -227 -62 -111 -75 -151 -68 -218 7 -64 54 -170 103 -230 65 -79 155 -83 229 -9 68 68 79 118 72 304 l-7 153 23 -6 c12 -4 54 -24 92 -45 l70 -38 27 -104 c31 -123 74 -232 126 -317 103 -168 181 -212 285 -160 59 31 137 90 195 149 60 61 68 96 47 232 -22 148 -85 297 -170 401 -54 67 -111 103 -185 117 -30 6 -58 16 -62 23 -11 16 1 86 18 113 18 26 56 44 95 44 127 0 282 -221 444 -630 32 -80 64 -152 71 -161 9 -10 14 -42 14 -93 0 -125 35 -164 155 -173 55 -4 64 -2 107 27 26 17 50 40 53 50 3 10 1 56 -5 103 -13 103 -4 173 45 358 19 74 49 195 65 269 17 74 32 139 34 145 4 15 76 -102 121 -200 174 -373 173 -369 189 -515 9 -74 23 -182 31 -240 8 -58 18 -131 22 -162 5 -55 5 -58 -16 -58 -12 0 -29 -7 -37 -15 -9 -8 -24 -15 -35 -15 -31 0 -94 -36 -123 -70 -18 -22 -26 -43 -26 -69 l0 -37 137 -12 c75 -6 140 -15 145 -20 5 -5 22 -65 38 -133 56 -234 92 -324 150 -373 43 -36 72 -41 139 -25 109 26 136 89 87 200 -41 95 -105 323 -93 335 2 2 41 -1 88 -8 81 -11 86 -10 134 15 87 44 135 109 135 181 l0 33 -77 7 c-42 3 -115 6 -163 6 -48 0 -108 3 -133 6 -52 7 -50 4 -86 194 -58 304 -71 417 -78 655 -9 303 13 396 87 365 86 -36 174 -204 291 -556 70 -209 61 -200 189 -196 l46 2 -7 83 c-26 285 -159 616 -308 765 -81 81 -138 106 -241 106 -69 1 -93 -3 -126 -21 -77 -41 -126 -106 -164 -217 l-17 -50 -32 60 c-45 84 -123 177 -203 239 -61 48 -75 54 -136 62 -103 12 -292 10 -333 -5 -41 -14 -92 -62 -128 -119 -23 -36 -28 -38 -71 -38 -41 0 -54 6 -106 49 -32 27 -88 63 -124 80 -58 27 -75 30 -156 30 -79 0 -98 -4 -155 -31 -121 -56 -191 -179 -214 -374 l-7 -55 -46 24 c-40 20 -58 23 -118 19 l-72 -4 -58 126 c-32 69 -74 143 -93 164 -67 74 -146 97 -269 78 -121 -19 -223 -56 -261 -95 l-33 -34 -75 63 c-97 82 -164 110 -248 100 -73 -8 -129 -31 -178 -74 l-37 -33 -53 46 c-79 67 -136 90 -227 89 -87 -1 -148 -20 -203 -64 l-38 -31 -59 46 c-108 85 -236 128 -330 110z m68 -188 c38 -20 113 -102 149 -161 51 -86 56 -115 49 -264 -9 -209 -19 -351 -22 -351 -13 0 -96 104 -126 158 -45 81 -104 255 -118 348 -15 109 -13 236 6 262 18 26 26 27 62 8z m3392 -126 c26 -26 27 -105 1 -233 -29 -143 -30 -144 -83 -30 -72 153 -72 194 2 257 38 31 54 32 80 6z m-725 -412 c39 -31 71 -110 90 -224 9 -55 18 -112 22 -129 l5 -30 -36 35 c-20 19 -45 53 -56 76 -42 86 -86 294 -63 294 6 0 23 -10 38 -22z m-2206 -933 c22 -88 45 -180 51 -205 14 -64 50 -279 49 -298 -2 -41 -91 247 -118 383 -7 33 -17 78 -21 100 -11 50 -40 270 -39 293 1 20 23 -56 78 -273z"/>
 <path d="M3785 2048 c-82 -45 -121 -138 -89 -216 23 -60 90 -102 161 -102 64 0 107 16 152 59 33 31 33 33 27 87 -13 116 -84 184 -189 184 -23 0 -51 -6 -62 -12z"/>
 <path d="M9555 1624 c-22 -2 -65 -9 -96 -15 l-57 -11 -4 -58 c-9 -123 -99 -245 -229 -310 -35 -18 -65 -34 -67 -35 -2 -2 10 -38 27 -80 58 -143 38 -270 -57 -368 -47 -48 -165 -88 -267 -90 -90 -2 -164 30 -234 103 -27 28 -52 47 -55 42 -10 -16 -35 -134 -42 -197 -21 -186 8 -436 64 -566 l17 -39 722 0 723 0 0 779 c0 618 -3 781 -13 789 -34 29 -324 66 -432 56z"/>
 <path d="M6668 926 c-51 -14 -63 -22 -121 -75 -75 -71 -103 -231 -57 -327 32 -66 75 -111 134 -141 44 -23 63 -27 136 -26 75 0 91 4 140 30 128 70 184 217 136 360 -35 106 -156 194 -265 192 -31 0 -77 -6 -103 -13z"/>
 </g>

</svg>